<svg width="64" height="64" viewBox="0 0 64 64" fill="none" xmlns="http://www.w3.org/2000/svg">
<rect x="1" y="1" width="62" height="62" rx="31" fill="#E6E6E6" stroke="white" stroke-width="2"/>
<path d="M41 26C41 30.9706 36.9706 35 32 35C27.0294 35 23 30.9706 23 26C23 21.0294 27.0294 17 32 17C36.9706 17 41 21.0294 41 26Z" fill="#B3B3B3"/>
<path d="M46.996 57.9888C42.5843 60.54 37.4627 62 32 62C26.5373 62 21.4157 60.54 17.004 57.9888C17.0013 57.8263 17 57.6634 17 57.5C17 45.902 23.7157 36.5 32 36.5C40.2843 36.5 47 45.902 47 57.5C47 57.6634 46.9987 57.8263 46.996 57.9888Z" fill="#B3B3B3"/>
</svg>
