<svg width="328" height="216" viewBox="0 0 328 216" fill="none" xmlns="http://www.w3.org/2000/svg">
<rect width="328" height="216" rx="8" fill="#E2CEF8"/>
<path fill-rule="evenodd" clip-rule="evenodd" d="M47.9317 216C49.3718 189.689 55.7946 162.362 62.3436 137.553C70.2856 107.466 92.8505 87.1457 115.975 66.3213C124.801 58.3733 133.708 50.3519 141.915 41.6862C151.319 31.7566 159.654 20.232 167.931 8.7864C170.06 5.84289 172.185 2.9046 174.324 0H320C324.418 0 328 3.58172 328 8V208C328 212.418 324.418 216 320 216H47.9317Z" fill="#EADBFA"/>
<path fill-rule="evenodd" clip-rule="evenodd" d="M165.41 216C166.246 189.689 169.975 162.361 173.777 137.552C178.387 107.465 191.487 87.1448 204.912 66.3204C210.035 58.3724 215.206 50.351 219.971 41.6853C225.43 31.7557 230.269 20.2311 235.074 8.7855C236.31 5.84229 237.544 2.9043 238.785 0H320.001C324.419 0 328.001 3.58172 328.001 8V208C328.001 212.418 324.419 216 320.001 216H165.41Z" fill="#F2E9FC"/>
</svg>
