<svg width="328" height="104" viewBox="0 0 328 104" fill="none" xmlns="http://www.w3.org/2000/svg">
<rect width="328" height="104" rx="8" fill="#E2CEF8"/>
<path fill-rule="evenodd" clip-rule="evenodd" d="M47.9317 104C49.3718 91.3316 55.7946 78.1741 62.3436 66.2289C70.2856 51.7428 92.8505 41.9589 115.975 31.9323C124.801 28.1055 133.708 24.2433 141.915 20.0709C151.319 15.29 159.654 9.74117 167.931 4.23031C170.06 2.81313 172.185 1.39845 174.323 0H320C324.418 0 328 3.58172 328 8V96C328 100.418 324.418 104 320 104H47.9317Z" fill="#EADBFA"/>
<path fill-rule="evenodd" clip-rule="evenodd" d="M165.41 104C166.246 91.3316 169.975 78.174 173.777 66.2287C178.387 51.7427 191.487 41.9587 204.912 31.9321C210.035 28.1053 215.206 24.2432 219.971 20.0708C225.43 15.2899 230.269 9.74102 235.074 4.23016C236.31 2.81303 237.544 1.3984 238.785 0H320.001C324.419 0 328.001 3.58172 328.001 8V96C328.001 100.418 324.419 104 320.001 104H165.41Z" fill="#F2E9FC"/>
</svg>
