<svg width="230" height="60" viewBox="0 0 230 60" fill="none" xmlns="http://www.w3.org/2000/svg">
<path d="M179.037 58.4914L174.979 53.2882L184.312 45.8509C185.279 45.084 186.06 44.1044 186.596 42.9866C187.132 41.8688 187.41 40.6421 187.407 39.3997V15.4541H193.959C194.163 15.4541 194.365 15.4948 194.554 15.5738C194.742 15.6529 194.913 15.7687 195.057 15.9147C195.201 16.0607 195.315 16.234 195.393 16.4247C195.471 16.6154 195.51 16.8197 195.51 17.026V30.9108C195.51 31.3332 195.592 31.7515 195.752 32.1417C195.912 32.532 196.146 32.8866 196.442 33.1853C196.737 33.4839 197.088 33.7209 197.474 33.8825C197.859 34.0442 198.273 34.1274 198.691 34.1274H229.096V42.3215H198.691C197.554 42.3229 196.423 42.1499 195.337 41.8084C194.74 45.9523 192.588 49.7047 189.328 52.2876L181.214 58.7533C181.054 58.8811 180.871 58.9756 180.675 59.0316C180.479 59.0876 180.274 59.1038 180.072 59.0795C179.87 59.0552 179.674 58.9907 179.497 58.8898C179.319 58.7888 179.163 58.6535 179.037 58.4914Z" fill="white"/>
<path d="M167.101 42.7268H121.764V34.4054H167.101C167.526 34.4059 167.947 34.3219 168.34 34.1582C168.733 33.9945 169.09 33.7544 169.391 33.4515C169.691 33.1486 169.93 32.7889 170.093 32.393C170.255 31.997 170.339 31.5726 170.339 31.144V15.4541H177.008C177.427 15.4541 177.829 15.6218 178.125 15.9203C178.421 16.2189 178.587 16.6238 178.587 17.046V31.1403C178.588 32.6617 178.291 34.1683 177.714 35.574C177.137 36.9797 176.291 38.2571 175.224 39.333C174.158 40.409 172.891 41.2625 171.498 41.8448C170.104 42.4271 168.61 42.7268 167.101 42.7268Z" fill="white"/>
<path d="M90.2788 42.7268H83.6121C82.1074 42.7268 80.6174 42.4272 79.2272 41.845C77.8371 41.2629 76.5741 40.4096 75.5103 39.3339C74.4465 38.2583 73.6027 36.9813 73.0272 35.576C72.4517 34.1706 72.1558 32.6645 72.1563 31.1435V20.6679H80.3974V31.1435C80.3974 31.5717 80.4809 31.9956 80.643 32.3912C80.8051 32.7868 81.0426 33.1462 81.3422 33.449C81.6417 33.7518 81.9973 33.9919 82.3887 34.1558C82.78 34.3196 83.1995 34.404 83.6231 34.404H90.2898C91.1927 34.404 92.0586 34.0414 92.6971 33.396C93.3356 32.7506 93.6943 31.8753 93.6943 30.9626V15.4541H100.346C100.764 15.4541 101.165 15.6218 101.46 15.9202C101.755 16.2187 101.921 16.6235 101.921 17.0456V30.9589C101.922 32.5045 101.621 34.0352 101.037 35.4634C100.452 36.8916 99.5944 38.1893 98.5131 39.2822C97.4319 40.3752 96.1481 41.242 94.7352 41.833C93.3223 42.4241 91.8079 42.7278 90.2788 42.7268Z" fill="white"/>
<path d="M111.933 42.7268H105.269C103.764 42.7283 102.273 42.4297 100.881 41.8482C99.4899 41.2667 98.2256 40.4137 97.1606 39.3378C96.0956 38.262 95.2509 36.9846 94.6747 35.5785C94.0985 34.1725 93.8023 32.6654 93.8027 31.1435V20.6679H102.029V31.1435C102.029 31.572 102.113 31.9963 102.275 32.3921C102.437 32.7879 102.675 33.1475 102.975 33.4503C103.275 33.7531 103.631 33.9932 104.023 34.1568C104.415 34.3205 104.835 34.4044 105.258 34.404H111.933C112.38 34.404 112.822 34.3149 113.235 34.142C113.648 33.969 114.024 33.7156 114.34 33.396C114.656 33.0764 114.907 32.6971 115.078 32.2795C115.249 31.862 115.337 31.4145 115.337 30.9626V15.4541H121.989C122.196 15.4536 122.401 15.4944 122.593 15.5742C122.784 15.6539 122.958 15.7711 123.105 15.9189C123.251 16.0667 123.368 16.2424 123.447 16.4357C123.526 16.629 123.567 16.8363 123.567 17.0456V30.9589C123.568 32.5039 123.268 34.034 122.684 35.4617C122.1 36.8894 121.243 38.1868 120.162 39.2796C119.082 40.3725 117.799 41.2394 116.387 41.8309C114.975 42.4224 113.461 42.7268 111.933 42.7268Z" fill="white"/>
<path d="M63.5221 59.3951L59.394 54.132L68.8872 46.6092C69.8681 45.8307 70.6609 44.8388 71.206 43.7079C71.7511 42.5771 72.0343 41.3367 72.0344 40.08V23.7425H56.664C55.783 23.7435 54.9384 24.0959 54.3154 24.7224C53.6925 25.3489 53.342 26.1983 53.341 27.0844V35.612H62.6877V43.904H46.6768C46.4694 43.904 46.264 43.8629 46.0724 43.7829C45.8808 43.703 45.7068 43.5858 45.5603 43.4381C45.4138 43.2904 45.2977 43.1151 45.2186 42.9222C45.1396 42.7294 45.0991 42.5227 45.0996 42.3141V27.0844C45.0996 23.9998 46.318 21.0416 48.4867 18.8605C50.6555 16.6794 53.5969 15.4541 56.664 15.4541H78.6986C79.1169 15.4541 79.5181 15.6212 79.8139 15.9187C80.1097 16.2162 80.2759 16.6197 80.2759 17.0404V40.08C80.2833 42.5914 79.7208 45.0713 78.6313 47.331C77.5418 49.5907 75.9539 51.5705 73.9887 53.1199L65.7362 59.6601C65.4076 59.92 64.9898 60.0381 64.5746 59.9884C64.1595 59.9387 63.7809 59.7253 63.5221 59.3951Z" fill="white"/>
<path d="M229.999 58.1815H221.686V55.2377H212.861V46.3633H229.999V58.1815Z" fill="white"/>
<path d="M121.765 46.3633H107.334V54.5451H121.765V46.3633Z" fill="white"/>
<path d="M96.9096 0H101.92V9.09091H93.8027V3.49174C93.8027 2.56782 94.1297 1.68155 94.712 1.02708C95.2944 0.372608 96.0846 0.0032802 96.9096 0Z" fill="white"/>
<path d="M215.568 10.7504L220.202 9.21911C220.014 8.88716 219.889 8.52438 219.833 8.14832C219.749 7.74542 219.706 7.33534 219.704 6.92403C219.696 6.21524 219.835 5.51246 220.113 4.8592C220.375 4.25163 220.75 3.69861 221.22 3.22926C221.68 2.77134 222.233 2.41514 222.843 2.18404C223.483 1.93921 224.163 1.81526 224.849 1.81858C225.54 1.812 226.224 1.95025 226.856 2.22425C227.466 2.4911 228.017 2.87346 228.479 3.34985C228.955 3.84301 229.331 4.42248 229.586 5.05655C229.864 5.72785 230.004 6.44707 229.999 7.17254C230.012 7.9974 229.845 8.81528 229.508 9.56994C229.194 10.2679 228.748 10.9004 228.195 11.4338C227.614 11.9828 226.955 12.4456 226.24 12.8079C225.464 13.2088 224.654 13.5426 223.82 13.8056L215.583 16.3638L215.568 10.7504Z" fill="white"/>
<path d="M33.3831 26.2491C32.2778 25.1342 30.9652 24.25 29.5203 23.6472C28.0755 23.0445 26.5269 22.7349 24.9632 22.7364H15.9466C14.0184 22.7364 12.1691 21.9644 10.8056 20.5901C9.44215 19.2159 8.67615 17.352 8.67615 15.4085C8.67615 13.465 9.44215 11.6012 10.8056 10.2269C12.1691 8.85266 14.0184 8.08063 15.9466 8.08063H28.3568V15.2904H36.8682V0H15.3755C11.2976 0 7.38684 1.63272 4.50337 4.53899C1.61991 7.44525 0 11.387 0 15.4971C0 19.6072 1.61991 23.5489 4.50337 26.4552C7.38684 29.3614 11.2976 30.9941 15.3755 30.9941H24.1028C25.2288 30.9951 26.3086 31.4456 27.1059 32.2471C27.9031 33.0486 28.3529 34.1357 28.3568 35.2706V46.9561H36.8682V34.7393C36.8695 33.1627 36.5624 31.6013 35.9644 30.1444C35.3664 28.6876 34.4892 27.3639 33.3831 26.2491Z" fill="white"/>
<path d="M28.3557 35.2716V46.9571H33.7738C34.18 46.9571 34.5822 46.8765 34.9576 46.7198C35.3329 46.5631 35.6739 46.3334 35.9612 46.0439C36.2484 45.7544 36.4762 45.4107 36.6317 45.0324C36.7871 44.6541 36.8672 44.2487 36.8672 43.8392C36.8681 42.1491 36.5388 40.4754 35.898 38.9136C35.2572 37.3517 34.3174 35.9324 33.1324 34.7366C31.9474 33.5409 30.5403 32.5921 28.9915 31.9444C27.4426 31.2967 25.7823 30.9629 24.1055 30.9619C24.6655 30.9629 25.2199 31.0752 25.7368 31.2924C26.2537 31.5097 26.723 31.8276 27.1178 32.2279C27.5126 32.6282 27.8252 33.1031 28.0376 33.6254C28.2501 34.1477 28.3581 34.7071 28.3557 35.2716Z" fill="url(#paint0_linear_5241_6389)"/>
<path fill-rule="evenodd" clip-rule="evenodd" d="M36.8652 58.8186H28.3574V53.5349C28.3574 52.708 28.6833 51.9149 29.2634 51.3302C29.8435 50.7455 30.6304 50.417 31.4508 50.417H36.8579L36.8652 58.8186Z" fill="white"/>
<defs>
<linearGradient id="paint0_linear_5241_6389" x1="26.0237" y1="45.6177" x2="32.7655" y2="34.0298" gradientUnits="userSpaceOnUse">
<stop offset="0.05" stop-color="white" stop-opacity="0.6"/>
<stop offset="1" stop-color="#535553" stop-opacity="0.88"/>
</linearGradient>
</defs>
</svg>
