<svg width="118" height="26" viewBox="0 0 118 26" fill="none" xmlns="http://www.w3.org/2000/svg">
<g opacity="0.8">
<path opacity="0.8" d="M1.67455 16.1133H2.81064V13.6129H4.39812C5.83345 13.6129 6.82753 12.634 6.82753 11.2038V11.1936C6.82753 9.75829 5.83345 8.79464 4.39812 8.79464H1.67455V16.1133ZM4.1141 9.75321C5.10311 9.75321 5.67115 10.2858 5.67115 11.1987V11.2088C5.67115 12.1268 5.10311 12.6594 4.1141 12.6594H2.81064V9.75321H4.1141ZM9.7489 16.2198C11.2755 16.2198 12.2797 15.1649 12.2797 13.4455V13.4354C12.2797 11.7262 11.2654 10.6763 9.74383 10.6763C8.22735 10.6763 7.21806 11.7312 7.21806 13.4354V13.4455C7.21806 15.1598 8.21721 16.2198 9.7489 16.2198ZM9.75397 15.3018C8.89683 15.3018 8.33893 14.6272 8.33893 13.4455V13.4354C8.33893 12.2688 8.9019 11.5943 9.74383 11.5943C10.601 11.5943 11.1589 12.2688 11.1589 13.4354V13.4455C11.1589 14.6222 10.6111 15.3018 9.75397 15.3018ZM14.1563 16.1133H15.2873L16.3981 12.1167H16.4234L17.5443 16.1133H18.6855L20.1461 10.7777H19.0608L18.087 14.9772H18.0616L16.9458 10.7777H15.8909L14.7801 14.9772H14.7599L13.7861 10.7777H12.6906L14.1563 16.1133ZM23.0624 16.2198C24.3558 16.2198 25.1774 15.4489 25.3498 14.6019L25.36 14.5461H24.3202L24.305 14.5867C24.1681 14.9873 23.737 15.3221 23.0878 15.3221C22.2154 15.3221 21.6626 14.7337 21.6423 13.7245H25.4208V13.3542C25.4208 11.7515 24.5028 10.6763 23.0066 10.6763C21.5105 10.6763 20.5468 11.7921 20.5468 13.4607V13.4658C20.5468 15.1496 21.4952 16.2198 23.0624 16.2198ZM23.0117 11.574C23.7268 11.574 24.2442 12.0254 24.3355 12.9485H21.6575C21.7539 12.0558 22.3017 11.574 23.0117 11.574ZM26.2729 16.1133H27.3684V12.9332C27.3684 12.137 27.8046 11.6754 28.5096 11.6754C28.7226 11.6754 28.9153 11.7008 29.0015 11.7363V10.7169C28.9153 10.7016 28.7784 10.6763 28.6212 10.6763C28.0125 10.6763 27.5662 11.0668 27.3938 11.6907H27.3684V10.7777H26.2729V16.1133ZM31.7251 16.2198C33.0184 16.2198 33.8401 15.4489 34.0125 14.6019L34.0226 14.5461H32.9829L32.9677 14.5867C32.8308 14.9873 32.3997 15.3221 31.7505 15.3221C30.8781 15.3221 30.3253 14.7337 30.305 13.7245H34.0835V13.3542C34.0835 11.7515 33.1655 10.6763 31.6693 10.6763C30.1731 10.6763 29.2095 11.7921 29.2095 13.4607V13.4658C29.2095 15.1496 30.1579 16.2198 31.7251 16.2198ZM31.6744 11.574C32.3895 11.574 32.9068 12.0254 32.9981 12.9485H30.3202C30.4166 12.0558 30.9643 11.574 31.6744 11.574ZM36.9288 16.2198C37.6946 16.2198 38.283 15.8343 38.6025 15.2105H38.6228V16.1133H39.7234V8.79464H38.6228V11.6856H38.6025C38.283 11.0567 37.6744 10.6763 36.9187 10.6763C35.5797 10.6763 34.6972 11.7414 34.6972 13.4404V13.4455C34.6972 15.1446 35.5696 16.2198 36.9288 16.2198ZM37.2179 15.2764C36.3506 15.2764 35.8181 14.5816 35.8181 13.4455V13.4404C35.8181 12.3145 36.3557 11.6146 37.2179 11.6146C38.0395 11.6146 38.6279 12.3348 38.6279 13.4404V13.4455C38.6279 14.5562 38.0446 15.2764 37.2179 15.2764ZM45.7944 16.2198C47.1485 16.2198 48.026 15.1446 48.026 13.4455V13.4404C48.026 11.7414 47.1435 10.6763 45.8045 10.6763C45.0488 10.6763 44.4402 11.0567 44.1207 11.6856H44.0953V8.79464H42.9998V16.1133H44.0953V15.2105H44.1207C44.4351 15.8343 45.0285 16.2198 45.7944 16.2198ZM45.5053 15.2764C44.6735 15.2764 44.0902 14.5562 44.0902 13.4455V13.4404C44.0902 12.3348 44.6786 11.6146 45.5053 11.6146C46.3675 11.6146 46.9051 12.3145 46.9051 13.4404V13.4455C46.9051 14.5816 46.3675 15.2764 45.5053 15.2764ZM49.299 17.8935C50.3438 17.8935 50.9017 17.4675 51.2973 16.3618L53.2854 10.7777H52.1291L50.785 15.1192H50.7495L49.4055 10.7777H48.2187L50.1612 16.1184L50.0699 16.3719C49.8873 16.8893 49.6033 17.0262 49.086 17.0262C48.9389 17.0262 48.8121 17.0059 48.7259 16.9856V17.8428C48.8577 17.8681 49.086 17.8935 49.299 17.8935Z" fill="white"/>
<ellipse rx="1.42074" ry="1.40908" transform="matrix(0 -1 -1 0 76.5636 10.8166)" fill="white"/>
<ellipse rx="1.16128" ry="1.15175" transform="matrix(0 -1 -1 0 75.8502 7.50278)" fill="white"/>
<ellipse rx="0.824658" ry="0.817888" transform="matrix(0 -1 -1 0 74.1235 5.18023)" fill="white"/>
<ellipse rx="0.488768" ry="0.500066" transform="matrix(0 -1 -1 0 72.1992 3.92822)" fill="white"/>
<ellipse rx="0.382195" ry="0.363751" transform="matrix(0 -1 -1 0 70.7007 3.4557)" fill="white"/>
<ellipse cx="75.851" cy="14.1327" rx="1.16128" ry="1.15175" transform="rotate(-90 75.851 14.1327)" fill="white"/>
<ellipse cx="74.1226" cy="16.4546" rx="0.824657" ry="0.817894" transform="rotate(-90 74.1226 16.4546)" fill="white"/>
<ellipse cx="72.1993" cy="17.7075" rx="0.488768" ry="0.500066" transform="rotate(-90 72.1993 17.7075)" fill="white"/>
<ellipse cx="70.6997" cy="18.1803" rx="0.382195" ry="0.363748" transform="rotate(-90 70.6997 18.1803)" fill="white"/>
<ellipse cx="66.7294" cy="4.47835" rx="1.40908" ry="1.42073" fill="white"/>
<ellipse cx="70.017" cy="5.19644" rx="1.15175" ry="1.16128" fill="white"/>
<ellipse cx="72.3198" cy="6.93696" rx="0.817888" ry="0.824658" fill="white"/>
<ellipse cx="73.5629" cy="8.87823" rx="0.484753" ry="0.504203" fill="white"/>
<ellipse cx="74.0314" cy="10.3912" rx="0.379059" ry="0.36676" fill="white"/>
<ellipse rx="1.15175" ry="1.16128" transform="matrix(-1 0 0 1 63.442 5.19644)" fill="white"/>
<ellipse rx="0.81789" ry="0.824658" transform="matrix(-1 0 0 1 61.1372 6.93696)" fill="white"/>
<ellipse rx="0.484757" ry="0.504202" transform="matrix(-1 0 0 1 59.8981 8.87725)" fill="white"/>
<ellipse rx="0.379058" ry="0.366761" transform="matrix(-1 0 0 1 59.4276 10.3912)" fill="white"/>
<ellipse cx="60.4423" cy="14.423" rx="1.42073" ry="1.40907" transform="rotate(-90 60.4423 14.423)" fill="white"/>
<ellipse cx="61.1537" cy="11.1073" rx="1.16128" ry="1.15175" transform="rotate(-90 61.1537 11.1073)" fill="white"/>
<ellipse cx="62.8804" cy="8.78667" rx="0.824659" ry="0.817889" transform="rotate(-90 62.8804 8.78667)" fill="white"/>
<ellipse cx="64.8067" cy="7.53367" rx="0.488787" ry="0.500046" transform="rotate(-90 64.8067 7.53367)" fill="white"/>
<ellipse cx="66.3052" cy="7.05921" rx="0.382196" ry="0.36375" transform="rotate(-90 66.3052 7.05921)" fill="white"/>
<ellipse rx="1.16129" ry="1.15175" transform="matrix(0 -1 -1 0 61.1549 17.7372)" fill="white"/>
<ellipse rx="0.82466" ry="0.817889" transform="matrix(0 -1 -1 0 62.8813 20.0601)" fill="white"/>
<ellipse rx="0.488767" ry="0.500064" transform="matrix(0 -1 -1 0 64.8066 21.312)" fill="white"/>
<ellipse rx="0.382193" ry="0.36375" transform="matrix(0 -1 -1 0 66.3062 21.7858)" fill="white"/>
<ellipse rx="1.40907" ry="1.42073" transform="matrix(1 0 0 -1 70.3056 20.7326)" fill="white"/>
<ellipse rx="1.15175" ry="1.16128" transform="matrix(1 0 0 -1 73.5912 20.0145)" fill="white"/>
<ellipse rx="0.817888" ry="0.824658" transform="matrix(1 0 0 -1 75.896 18.272)" fill="white"/>
<ellipse rx="0.484755" ry="0.504203" transform="matrix(1 0 0 -1 77.1391 16.3317)" fill="white"/>
<ellipse rx="0.379057" ry="0.366759" transform="matrix(1 0 0 -1 77.6076 14.8198)" fill="white"/>
<ellipse cx="67.0182" cy="20.0145" rx="1.15175" ry="1.16128" transform="rotate(-180 67.0182 20.0145)" fill="white"/>
<ellipse cx="64.7153" cy="18.272" rx="0.817892" ry="0.824658" transform="rotate(-180 64.7153 18.272)" fill="white"/>
<ellipse cx="63.4723" cy="16.3317" rx="0.484757" ry="0.504203" transform="rotate(-180 63.4723 16.3317)" fill="white"/>
<ellipse cx="63.0038" cy="14.8198" rx="0.379058" ry="0.36676" transform="rotate(-180 63.0038 14.8198)" fill="white"/>
<path d="M82.1524 6.83398L84.4328 6.83013C85.057 6.82907 85.4775 6.86576 85.8854 7.01468C86.714 7.3125 87.3521 7.98467 87.3539 9.03195C87.3551 9.75507 87.0249 10.4164 86.0319 10.8295C87.3063 11.0642 88.1103 11.9231 88.1121 13.0078C88.1145 14.3917 86.9434 14.9797 86.4213 15.1551C85.912 15.3305 85.5044 15.3312 84.5743 15.3328L82.1665 15.3369L82.1523 6.834L82.1524 6.83398ZM84.2181 7.91515L83.39 7.91656L83.3942 10.4724L84.2223 10.471C84.5408 10.4705 85.0886 10.4446 85.394 10.2695C85.6359 10.1445 86.0685 9.80708 86.0673 9.13385C86.0665 8.66007 85.8365 8.24903 85.4541 8.07512C85.0971 7.91365 84.5875 7.91451 84.218 7.91514L84.2181 7.91515ZM84.5681 11.5675L83.3961 11.5695L83.4005 14.25L84.6363 14.248C84.993 14.2474 85.6046 14.2463 85.9228 14.1211C86.5594 13.8831 86.8261 13.3466 86.8253 12.8978C86.8247 12.5362 86.6455 12.0004 85.9953 11.7397C85.6638 11.6031 85.2433 11.5664 84.5682 11.5676L84.5681 11.5675Z" fill="white"/>
<path d="M89.3166 7.3885C89.7089 7.38783 90.0101 7.68728 90.0107 8.03721C90.0113 8.38714 89.698 8.70014 89.3188 8.70078C88.8743 8.70153 88.6383 8.3145 88.6378 8.03954C88.6373 7.72708 88.9244 7.38916 89.3166 7.3885V7.3885ZM89.909 9.74965L89.9183 15.3612L88.7546 15.3632L88.7453 9.75162L89.909 9.74965Z" fill="white"/>
<path d="M92.634 8.44082L92.6359 9.60171L94.4139 9.5987L94.4156 10.5973L92.6376 10.6003L92.6416 13.0469C92.6553 13.7459 92.6681 13.8707 92.8437 14.0701C93.0569 14.2944 93.3324 14.3064 93.4451 14.3062C93.6705 14.3059 94.0961 14.2802 94.7091 13.9047L94.7108 14.9407C94.1854 15.2287 93.597 15.3171 93.2715 15.3176C92.8833 15.3183 92.1944 15.1572 91.8053 14.6086C91.5292 14.1971 91.5282 13.598 91.5273 13.0862L91.5232 10.6022L90.5466 10.6038L90.5464 10.4915L92.634 8.4408L92.634 8.44082Z" fill="white"/>
<path d="M96.361 6.80961L96.3665 10.0658C96.5564 9.93027 97.0884 9.56075 97.9381 9.55931C99.4598 9.55674 100.388 10.8208 100.39 12.369C100.394 14.3104 99.0129 15.308 97.4531 15.3107C96.7303 15.3119 95.7916 15.1414 95.2459 14.8843L95.2324 6.81152L96.3611 6.80961L96.361 6.80961ZM96.3682 11.1102L96.3732 14.096C96.8299 14.2304 97.3753 14.2663 97.5655 14.266C98.2376 14.2649 99.2513 13.7963 99.249 12.42C99.247 11.179 98.4597 10.566 97.6481 10.5673C97.014 10.5684 96.5961 10.9132 96.3682 11.1101L96.3682 11.1102Z" fill="white"/>
<path d="M105.811 14.3251L105.813 15.0068C105.293 15.3485 105.078 15.4499 104.723 15.4505C104.228 15.4513 103.962 15.275 103.86 14.8712C103.366 15.2634 102.846 15.4536 102.326 15.4545C101.49 15.4559 100.931 14.8005 100.929 14.0683C100.928 12.9448 101.954 12.6022 102.866 12.2724L103.868 11.9172L103.867 11.6143C103.866 10.9073 103.523 10.6176 102.838 10.6187C102.217 10.6198 101.583 10.9112 101.039 11.5559L101.037 10.3314C101.48 9.81306 102.101 9.55953 102.925 9.55813C104.079 9.55618 104.993 10.1353 104.995 11.423L105 14.3391C105 14.5537 105.077 14.6293 105.216 14.629C105.33 14.6288 105.558 14.5148 105.812 14.3251L105.811 14.3251ZM103.871 14.1895L103.868 12.5358C102.905 12.8656 102.069 13.1953 102.07 13.8643C102.071 14.3314 102.414 14.659 102.883 14.6583C103.238 14.6577 103.567 14.4804 103.871 14.1895Z" fill="white"/>
<path d="M106.336 9.81601L107.423 9.81417L107.425 11.106C107.778 10.541 108.289 9.69982 109.058 9.69852C109.217 9.69825 109.706 9.70997 110.341 10.336L109.769 11.3152C109.635 11.1775 109.146 10.7644 108.718 10.7651C108.316 10.7658 107.425 11.2188 107.427 12.4981L107.432 15.4454L106.345 15.4472L106.336 9.81608L106.336 9.81601Z" fill="white"/>
<path d="M115.641 9.68735L115.642 10.5514L114.484 10.5534C114.925 10.9909 115.077 11.3037 115.078 11.7796C115.079 12.2429 114.815 12.7819 114.551 13.0453C113.797 13.848 112.26 13.4499 112.261 14.1135C112.262 14.4266 112.854 14.6135 113.987 14.8369C115.197 15.0728 115.626 15.6857 115.627 16.3995C115.629 17.514 114.635 18.1919 112.96 18.1947C111.437 18.1973 110.353 17.4854 110.351 16.4961C110.35 15.6696 110.79 15.1804 111.771 14.9409C111.381 14.7036 111.204 14.4785 111.204 14.228C111.203 13.8649 111.555 13.5512 112.096 13.4251L112.096 13.4C111.681 13.2254 111.365 12.988 111.151 12.6878C110.949 12.4001 110.847 12.0497 110.847 11.6364C110.845 10.4343 111.788 9.69384 113.312 9.69126L115.641 9.68732L115.641 9.68735ZM114.07 11.6436C114.069 11.1051 113.565 10.6551 112.973 10.6561C112.356 10.6572 111.853 11.1214 111.854 11.6724C111.855 12.286 112.309 12.6984 112.989 12.6973C113.619 12.6962 114.071 12.2572 114.07 11.6436ZM114.544 16.489C114.543 15.7752 113.384 15.5893 112.692 15.5905C111.936 15.5918 111.408 15.9433 111.409 16.4442C111.41 17.0077 111.964 17.3074 112.984 17.3056C113.966 17.304 114.545 17.0024 114.544 16.489L114.544 16.489Z" fill="white"/>
</g>
</svg>
