<svg width="329" height="365" viewBox="0 0 329 365" fill="none" xmlns="http://www.w3.org/2000/svg">
<rect width="328" height="365" rx="12" fill="#6F1EC3"/>
<path fill-rule="evenodd" clip-rule="evenodd" d="M11.87 365C5.06387 365 -0.390231 359.345 0.0240954 352.551C2.49829 311.983 9.34546 270.46 16.3144 232.436C25.6326 181.596 52.1073 147.258 79.2384 112.069C89.5935 98.638 100.044 85.0833 109.673 70.4398C120.706 53.6607 130.485 34.1863 140.198 14.8453C141.589 12.0737 142.98 9.3049 144.372 6.54712C146.404 2.5241 150.532 0 155.039 0H320.002C324.42 0 328.002 3.58172 328.002 8V357C328.002 361.418 324.42 365 320.002 365H11.87Z" fill="#7E22DD"/>
<path fill-rule="evenodd" clip-rule="evenodd" d="M133.918 365C127.179 365 121.754 359.451 122.011 352.716C123.559 312.096 127.865 270.512 132.248 232.437C138.1 181.597 154.728 147.259 171.767 112.07C178.271 98.639 184.834 85.0843 190.881 70.4408C197.811 53.6617 203.952 34.1873 210.052 14.8463C210.737 12.6739 211.422 10.5032 212.107 8.33815C213.68 3.36689 218.299 0 223.513 0H320.002C324.42 0 328.002 3.58172 328.002 8V357C328.002 361.418 324.42 365 320.002 365H133.918Z" fill="#984EE4"/>
<path d="M137.002 103.481C137.003 104.207 136.86 104.925 136.583 105.595C136.306 106.265 135.899 106.874 135.387 107.387C134.874 107.899 134.265 108.306 133.595 108.584C132.926 108.861 132.208 109.004 131.482 109.004C132.207 109.004 132.925 109.146 133.595 109.423C134.264 109.7 134.873 110.107 135.385 110.619C135.898 111.131 136.305 111.74 136.582 112.409C136.859 113.079 137.002 113.796 137.002 114.521C137.002 113.796 137.145 113.079 137.423 112.409C137.7 111.74 138.107 111.131 138.619 110.619C139.132 110.107 139.74 109.7 140.41 109.423C141.08 109.146 141.797 109.004 142.522 109.004C141.797 109.004 141.079 108.861 140.409 108.584C139.739 108.306 139.131 107.899 138.618 107.387C138.105 106.874 137.699 106.265 137.422 105.595C137.144 104.925 137.002 104.207 137.002 103.481Z" fill="#FEFEFE"/>
<path d="M137.002 94L137.759 108.244L152.003 109.002L137.759 109.759L137.002 124L136.244 109.759L122 109.002L136.244 108.244L137.002 94Z" fill="#FEFEFE"/>
<path d="M128.95 114.87C128.95 115.476 128.709 116.058 128.28 116.486C127.852 116.915 127.27 117.156 126.664 117.156C126.964 117.155 127.261 117.214 127.538 117.329C127.816 117.443 128.068 117.611 128.28 117.823C128.492 118.035 128.661 118.287 128.776 118.564C128.89 118.841 128.95 119.138 128.95 119.438C128.95 118.833 129.192 118.252 129.62 117.824C130.049 117.396 130.63 117.156 131.235 117.156C130.629 117.155 130.048 116.914 129.62 116.485C129.191 116.057 128.95 115.476 128.95 114.87Z" fill="#FEFEFE"/>
<path d="M128.951 110.944L129.266 116.84L135.162 117.155L129.266 117.468L128.951 123.363L128.639 117.468L122.74 117.155L128.639 116.84L128.951 110.944Z" fill="#FEFEFE"/>
<path d="M147.452 98.5107C147.452 98.8653 147.311 99.2053 147.06 99.456C146.81 99.7067 146.47 99.8475 146.115 99.8475C146.47 99.8483 146.809 99.9894 147.06 100.24C147.31 100.49 147.451 100.83 147.452 101.184C147.452 100.83 147.593 100.49 147.844 100.239C148.094 99.9883 148.434 99.8475 148.789 99.8475C148.613 99.8479 148.439 99.8136 148.277 99.7466C148.114 99.6795 147.967 99.5811 147.843 99.4569C147.718 99.3327 147.62 99.1851 147.553 99.0228C147.486 98.8604 147.452 98.6864 147.452 98.5107Z" fill="#FEFEFE"/>
<path d="M147.453 96.2129L147.635 99.6655L151.084 99.8473L147.635 100.032L147.453 103.482L147.268 100.032L143.818 99.8473L147.268 99.6655L147.453 96.2129Z" fill="#FEFEFE"/>
<path d="M141.25 102.536C141.25 102.787 141.151 103.028 140.973 103.205C140.796 103.382 140.556 103.482 140.305 103.482C140.556 103.482 140.796 103.582 140.973 103.759C141.151 103.936 141.25 104.177 141.25 104.428C141.25 104.177 141.35 103.936 141.527 103.759C141.705 103.582 141.945 103.482 142.196 103.482C142.072 103.482 141.949 103.458 141.834 103.411C141.719 103.363 141.614 103.294 141.527 103.206C141.439 103.118 141.369 103.013 141.322 102.899C141.274 102.784 141.25 102.66 141.25 102.536Z" fill="#FEFEFE"/>
<path d="M141.251 100.914L141.381 103.351L143.818 103.482L141.381 103.612L141.251 106.049L141.121 103.612L138.684 103.482L141.121 103.351L141.251 100.914Z" fill="#FEFEFE"/>
<path d="M131.911 99.2686C131.911 99.5189 131.812 99.759 131.636 99.9362C131.459 100.113 131.219 100.213 130.969 100.214C131.219 100.215 131.458 100.315 131.634 100.491C131.811 100.668 131.911 100.907 131.911 101.157C131.912 100.907 132.012 100.667 132.19 100.49C132.367 100.314 132.607 100.214 132.857 100.214C132.733 100.215 132.61 100.191 132.495 100.143C132.38 100.096 132.275 100.026 132.188 99.9382C132.1 99.8503 132.03 99.7459 131.983 99.6309C131.935 99.516 131.911 99.3929 131.911 99.2686Z" fill="#FEFEFE"/>
<path d="M131.915 97.6436L132.045 100.081L134.483 100.211L132.045 100.341L131.915 102.778L131.785 100.341L129.348 100.211L131.785 100.081L131.915 97.6436Z" fill="#FEFEFE"/>
<path d="M146.116 118.917C146.116 119.168 146.016 119.408 145.839 119.586C145.661 119.763 145.421 119.863 145.17 119.863C145.42 119.863 145.66 119.962 145.838 120.139C146.015 120.315 146.115 120.555 146.116 120.805C146.116 120.681 146.14 120.558 146.188 120.443C146.236 120.328 146.306 120.223 146.395 120.136C146.483 120.048 146.588 119.979 146.704 119.932C146.819 119.885 146.943 119.862 147.067 119.863C146.943 119.864 146.819 119.84 146.704 119.792C146.588 119.745 146.483 119.676 146.395 119.588C146.306 119.5 146.236 119.395 146.188 119.28C146.14 119.165 146.116 119.042 146.116 118.917Z" fill="#FEFEFE"/>
<path d="M146.116 117.295L146.247 119.732L148.684 119.862L146.247 119.993L146.116 122.43L145.986 119.993L143.549 119.862L145.986 119.732L146.116 117.295Z" fill="#FEFEFE"/>
<path d="M102.977 189.883C94.8248 189.883 93.9897 193.846 93.9897 202.001C93.9897 193.846 93.1546 189.883 85 189.883C93.1546 189.883 93.9897 186.067 93.9897 177.915C93.9897 186.067 94.8248 189.883 102.977 189.883Z" fill="#FEFEFE"/>
<path d="M109.088 183.234C104.841 183.234 104.404 185.3 104.404 189.547C104.404 185.3 103.97 183.234 99.7227 183.234C103.97 183.234 104.404 181.247 104.404 177C104.409 181.247 104.846 183.234 109.088 183.234Z" fill="#FEFEFE"/>
<path d="M102.194 196.039C99.9567 196.039 99.7268 197.127 99.7268 199.359C99.7268 197.122 99.497 196.039 97.2598 196.039C99.497 196.039 99.7268 194.992 99.7268 192.755C99.7294 194.992 99.9592 196.039 102.194 196.039Z" fill="#FEFEFE"/>
<path d="M110.199 191.115C108.848 191.115 108.71 191.772 108.71 193.125C108.71 191.772 108.57 191.115 107.219 191.115C108.57 191.115 108.71 190.482 108.71 189.131C108.71 190.482 108.848 191.115 110.199 191.115Z" fill="#FEFEFE"/>
<path d="M89.2148 185.998C87.8638 185.998 87.7258 186.654 87.7258 188.008C87.7258 186.654 87.5879 185.998 86.2344 185.998C87.5879 185.998 87.7258 185.365 87.7258 184.014C87.7258 185.375 87.8638 185.998 89.2148 185.998Z" fill="#FEFEFE"/>
<path d="M106.233 199.995C105.406 199.995 105.321 200.396 105.321 201.221C105.321 200.396 105.237 199.995 104.412 199.995C105.237 199.995 105.321 199.607 105.321 198.782C105.321 199.607 105.406 199.995 106.233 199.995Z" fill="#FEFEFE"/>
<path d="M287.572 234.459C277.79 234.459 276.788 239.215 276.788 249C276.788 239.215 275.785 234.459 266 234.459C275.785 234.459 276.788 229.88 276.788 220.098C276.788 229.88 277.79 234.459 287.572 234.459Z" fill="#FEFEFE"/>
<path d="M294.906 226.481C289.81 226.481 289.285 228.96 289.285 234.057C289.285 228.96 288.765 226.481 283.668 226.481C288.765 226.481 289.285 224.097 289.285 219C289.292 224.097 289.816 226.481 294.906 226.481Z" fill="#FEFEFE"/>
<path d="M286.632 241.847C283.947 241.847 283.671 243.153 283.671 245.831C283.671 243.147 283.396 241.847 280.711 241.847C283.396 241.847 283.671 240.591 283.671 237.906C283.674 240.591 283.95 241.847 286.632 241.847Z" fill="#FEFEFE"/>
<path d="M296.239 235.939C294.617 235.939 294.452 236.726 294.452 238.351C294.452 236.726 294.283 235.939 292.662 235.939C294.283 235.939 294.452 235.179 294.452 233.558C294.452 235.179 294.617 235.939 296.239 235.939Z" fill="#FEFEFE"/>
<path d="M271.057 229.797C269.436 229.797 269.27 230.585 269.27 232.209C269.27 230.585 269.105 229.797 267.48 229.797C269.105 229.797 269.27 229.037 269.27 227.416C269.27 229.049 269.436 229.797 271.057 229.797Z" fill="#FEFEFE"/>
<path d="M291.48 246.594C290.487 246.594 290.386 247.076 290.386 248.065C290.386 247.076 290.285 246.594 289.295 246.594C290.285 246.594 290.386 246.129 290.386 245.139C290.386 246.129 290.487 246.594 291.48 246.594Z" fill="#FEFEFE"/>
<path d="M113 197L122.444 365H208L223 197H113Z" fill="#FED91A"/>
<path d="M134 197L123.5 365H210.864L223 197H134Z" fill="#F6CE01"/>
<path d="M215.912 287L209 365H288L286.354 299.839L215.912 287Z" fill="#FDA116"/>
<path d="M215.338 287L210 365H278L270 297L215.338 287Z" fill="#F49302"/>
<path d="M41 249L49.255 365H123L116 252L41 249Z" fill="#FD9804"/>
<path d="M41 249L47.9463 365H93.5L47 249H41Z" fill="#FDA016"/>
</svg>
