<svg width="0" height="0" class="hidden">
 <symbol fill="none" xmlns="http://www.w3.org/2000/svg" viewBox="0 0 16 21" id="save-selected">
    <path d="M1 0H15C15.2652 0 15.5196 0.105357 15.7071 0.292893C15.8946 0.48043 16 0.734784 16 1V20.143C16.0001 20.2324 15.9763 20.3202 15.9309 20.3973C15.8855 20.4743 15.8204 20.5378 15.7421 20.5811C15.6639 20.6244 15.5755 20.6459 15.4861 20.6434C15.3968 20.641 15.3097 20.6146 15.234 20.567L8 16.03L0.766 20.566C0.690368 20.6135 0.603387 20.6399 0.514102 20.6424C0.424817 20.6449 0.336486 20.6235 0.258295 20.5803C0.180104 20.5371 0.114907 20.4738 0.0694828 20.3969C0.0240588 20.32 6.64708e-05 20.2323 0 20.143V1C0 0.734784 0.105357 0.48043 0.292893 0.292893C0.48043 0.105357 0.734784 0 1 0Z" fill="#6F1EC3"></path>
  </symbol>
  <symbol fill="none" xmlns="http://www.w3.org/2000/svg" viewBox="0 0 19 20" id="share-selected">
    <path d="M11.5757 15.2706L6.46571 12.4836C5.97521 12.9705 5.35153 13.3013 4.6733 13.4342C3.99508 13.5672 3.29267 13.4964 2.65464 13.2307C2.0166 12.9651 1.4715 12.5164 1.08806 11.9414C0.704619 11.3664 0.5 10.6908 0.5 9.99962C0.5 9.30849 0.704619 8.63283 1.08806 8.05782C1.4715 7.4828 2.0166 7.03419 2.65464 6.76852C3.29267 6.50286 3.99508 6.43204 4.6733 6.56499C5.35153 6.69795 5.97521 7.02873 6.46571 7.51562L11.5757 4.72862C11.4005 3.90636 11.527 3.04848 11.9323 2.31188C12.3376 1.57527 12.9945 1.00915 13.7828 0.717056C14.5712 0.424958 15.4383 0.426396 16.2257 0.721109C17.0131 1.01582 17.6681 1.58411 18.0709 2.32206C18.4737 3.06001 18.5975 3.9183 18.4195 4.73998C18.2415 5.56165 17.7737 6.29181 17.1016 6.79692C16.4295 7.30204 15.5981 7.54835 14.7593 7.49082C13.9206 7.43329 13.1305 7.07577 12.5337 6.48362L7.42371 9.27062C7.52565 9.75128 7.52565 10.248 7.42371 10.7286L12.5337 13.5156C13.1305 12.9235 13.9206 12.566 14.7593 12.5084C15.5981 12.4509 16.4295 12.6972 17.1016 13.2023C17.7737 13.7074 18.2415 14.4376 18.4195 15.2593C18.5975 16.0809 18.4737 16.9392 18.0709 17.6772C17.6681 18.4151 17.0131 18.9834 16.2257 19.2781C15.4383 19.5728 14.5712 19.5743 13.7828 19.2822C12.9945 18.9901 12.3376 18.424 11.9323 17.6874C11.527 16.9508 11.4005 16.0929 11.5757 15.2706Z" fill="#6F1EC3"></path>
  </symbol>
  <symbol fill="none" xmlns="http://www.w3.org/2000/svg" viewBox="0 0 16 21" id="save-unselected">
    <path d="M1 0H15C15.2652 0 15.5196 0.105357 15.7071 0.292893C15.8946 0.48043 16 0.734784 16 1V20.143C16.0001 20.2324 15.9763 20.3202 15.9309 20.3973C15.8855 20.4743 15.8204 20.5378 15.7421 20.5811C15.6639 20.6244 15.5755 20.6459 15.4861 20.6434C15.3968 20.641 15.3097 20.6146 15.234 20.567L8 16.03L0.766 20.566C0.690368 20.6135 0.603387 20.6399 0.514102 20.6424C0.424817 20.6449 0.336486 20.6235 0.258295 20.5803C0.180104 20.5371 0.114907 20.4738 0.0694828 20.3969C0.0240588 20.32 6.64708e-05 20.2323 0 20.143V1C0 0.734784 0.105357 0.48043 0.292893 0.292893C0.48043 0.105357 0.734784 0 1 0ZM14 2H2V17.432L8 13.671L14 17.432V2Z" fill="black"></path>
  </symbol>
  <symbol fill="none" xmlns="http://www.w3.org/2000/svg" viewBox="0 0 19 21" id="share-unselected">
    <path d="M11.1202 16.0227L6.92121 13.7327C6.373 14.3188 5.66119 14.7264 4.87828 14.9026C4.09537 15.0788 3.27756 15.0154 2.53113 14.7208C1.7847 14.4261 1.14417 13.9137 0.692774 13.2502C0.241381 12.5867 0 11.8027 0 11.0002C0 10.1977 0.241381 9.41378 0.692774 8.75027C1.14417 8.08676 1.7847 7.57437 2.53113 7.27968C3.27756 6.98498 4.09537 6.92162 4.87828 7.09783C5.66119 7.27403 6.373 7.68165 6.92121 8.26771L11.1212 5.97772C10.8828 5.03379 10.9968 4.0353 11.4418 3.16942C11.8869 2.30353 12.6325 1.6297 13.5389 1.27422C14.4452 0.918737 15.4501 0.90602 16.3652 1.23845C17.2803 1.57088 18.0427 2.22563 18.5095 3.07998C18.9764 3.93432 19.1156 4.9296 18.9011 5.87926C18.6866 6.82892 18.1332 7.66775 17.3444 8.23852C16.5557 8.8093 15.5859 9.07283 14.6168 8.97971C13.6477 8.88659 12.7458 8.44323 12.0802 7.73272L7.88021 10.0227C8.04141 10.6641 8.04141 11.3354 7.88021 11.9767L12.0792 14.2667C12.7448 13.5562 13.6467 13.1128 14.6158 13.0197C15.5849 12.9266 16.5547 13.1901 17.3434 13.7609C18.1322 14.3317 18.6856 15.1705 18.9001 16.1202C19.1146 17.0698 18.9754 18.0651 18.5085 18.9195C18.0417 19.7738 17.2793 20.4286 16.3642 20.761C15.4491 21.0934 14.4442 21.0807 13.5379 20.7252C12.6315 20.3697 11.8859 19.6959 11.4408 18.83C10.9958 17.9641 10.8818 16.9656 11.1202 16.0217V16.0227ZM4.00021 12.9997C4.53064 12.9997 5.03935 12.789 5.41442 12.4139C5.78949 12.0389 6.00021 11.5301 6.00021 10.9997C6.00021 10.4693 5.78949 9.96057 5.41442 9.5855C5.03935 9.21043 4.53064 8.99971 4.00021 8.99971C3.46977 8.99971 2.96107 9.21043 2.58599 9.5855C2.21092 9.96057 2.00021 10.4693 2.00021 10.9997C2.00021 11.5301 2.21092 12.0389 2.58599 12.4139C2.96107 12.789 3.46977 12.9997 4.00021 12.9997ZM15.0002 6.99972C15.5306 6.99972 16.0393 6.789 16.4144 6.41393C16.7895 6.03886 17.0002 5.53015 17.0002 4.99972C17.0002 4.46928 16.7895 3.96057 16.4144 3.5855C16.0393 3.21043 15.5306 2.99972 15.0002 2.99972C14.4698 2.99972 13.9611 3.21043 13.586 3.5855C13.2109 3.96057 13.0002 4.46928 13.0002 4.99972C13.0002 5.53015 13.2109 6.03886 13.586 6.41393C13.9611 6.789 14.4698 6.99972 15.0002 6.99972ZM15.0002 18.9997C15.5306 18.9997 16.0393 18.789 16.4144 18.4139C16.7895 18.0389 17.0002 17.5301 17.0002 16.9997C17.0002 16.4693 16.7895 15.9606 16.4144 15.5855C16.0393 15.2104 15.5306 14.9997 15.0002 14.9997C14.4698 14.9997 13.9611 15.2104 13.586 15.5855C13.2109 15.9606 13.0002 16.4693 13.0002 16.9997C13.0002 17.5301 13.2109 18.0389 13.586 18.4139C13.9611 18.789 14.4698 18.9997 15.0002 18.9997Z" fill="black"></path>
  </symbol>
    <symbol fill="none" xmlns="http://www.w3.org/2000/svg" viewBox="0 0 24 24" id="telegram">
    <path d="M12 2C6.5 2 2 6.5 2 12C2 17.5 6.5 22 12 22C17.5 22 22 17.5 22 12C22 6.5 17.5 2 12 2Z" fill="#29B6F6"></path>
    <path d="M17 7.5L15.15 17.05C15.15 17.05 15.05 17.5 14.55 17.5C14.25 17.5 14.1 17.35 14.1 17.35L10 14L8 13L5.45 12.3C5.45 12.3 5 12.15 5 11.8C5 11.5 5.45 11.35 5.45 11.35L16.1 7.1C16.1 7.1 16.45 7 16.65 7C16.8 7 16.95 7.05 16.95 7.25C17 7.4 17 7.5 17 7.5Z" fill="white"></path>
    <path d="M11.4998 15.25L9.7998 16.95C9.7998 16.95 9.7498 17 9.6498 17C9.5998 17 9.5998 17 9.5498 17L10.0498 14L11.4998 15.25Z" fill="#B0BEC5"></path>
    <path d="M14.95 9.09963C14.85 8.99963 14.7 8.94963 14.6 9.04963L8 12.9996C8 12.9996 9.05 15.9496 9.2 16.4496C9.35 16.9496 9.5 16.9496 9.5 16.9496L10 13.9496L14.9 9.39963C15 9.34963 15.05 9.19963 14.95 9.09963Z" fill="#CFD8DC"></path>
  </symbol>
    <symbol fill="none" xmlns="http://www.w3.org/2000/svg" viewBox="0 0 24 24" id="copy-link">
    <path d="M7 6V3C7 2.73478 7.10536 2.48043 7.29289 2.29289C7.48043 2.10536 7.73478 2 8 2H20C20.2652 2 20.5196 2.10536 20.7071 2.29289C20.8946 2.48043 21 2.73478 21 3V17C21 17.2652 20.8946 17.5196 20.7071 17.7071C20.5196 17.8946 20.2652 18 20 18H17V21C17 21.552 16.55 22 15.993 22H4.007C3.87513 22.0008 3.7444 21.9755 3.62232 21.9256C3.50025 21.8757 3.38923 21.8022 3.29566 21.7093C3.20208 21.6164 3.12779 21.5059 3.07705 21.3841C3.02632 21.2624 3.00013 21.1319 3 21L3.003 7C3.003 6.448 3.453 6 4.01 6H7ZM5.003 8L5 20H15V8H5.003ZM9 6H17V16H19V4H9V6Z" fill="#666666"></path>
  </symbol>
  <symbol fill="none" xmlns="http://www.w3.org/2000/svg" viewBox="0 0 24 24" id="whatsapp">
    <path d="M2.00401 22L3.35601 17.032C2.46515 15.5049 1.99711 13.768 2.00001 12C2.00001 6.477 6.47701 2 12 2C17.523 2 22 6.477 22 12C22 17.523 17.523 22 12 22C10.2328 22.0029 8.49667 21.5352 6.97001 20.645L2.00401 22ZM8.39101 7.308C8.26188 7.31602 8.13569 7.35003 8.02001 7.408C7.91153 7.46943 7.81251 7.54622 7.72601 7.636C7.60601 7.749 7.53801 7.847 7.46501 7.942C7.09542 8.423 6.89662 9.01342 6.90001 9.62C6.90201 10.11 7.03001 10.587 7.23001 11.033C7.63901 11.935 8.31201 12.89 9.20101 13.775C9.41501 13.988 9.62401 14.202 9.84901 14.401C10.9524 15.3725 12.2673 16.073 13.689 16.447L14.258 16.534C14.443 16.544 14.628 16.53 14.814 16.521C15.1053 16.506 15.3896 16.4271 15.647 16.29C15.813 16.202 15.891 16.158 16.03 16.07C16.03 16.07 16.073 16.042 16.155 15.98C16.29 15.88 16.373 15.809 16.485 15.692C16.568 15.606 16.64 15.505 16.695 15.39C16.773 15.227 16.851 14.916 16.883 14.657C16.907 14.459 16.9 14.351 16.897 14.284C16.893 14.177 16.804 14.066 16.707 14.019L16.125 13.758C16.125 13.758 15.255 13.379 14.724 13.137C14.668 13.1126 14.608 13.0987 14.547 13.096C14.4786 13.089 14.4095 13.0967 14.3443 13.1186C14.2791 13.1405 14.2193 13.1761 14.169 13.223V13.221C14.164 13.221 14.097 13.278 13.374 14.154C13.3325 14.2098 13.2754 14.2519 13.2098 14.2751C13.1443 14.2982 13.0733 14.3013 13.006 14.284C12.9409 14.2666 12.877 14.2445 12.815 14.218C12.691 14.166 12.648 14.146 12.563 14.109L12.558 14.107C11.9859 13.8572 11.4562 13.5198 10.988 13.107C10.862 12.997 10.745 12.877 10.625 12.761C10.2316 12.3842 9.88873 11.958 9.60501 11.493L9.54601 11.398C9.50364 11.3342 9.46937 11.2653 9.44401 11.193C9.40601 11.046 9.50501 10.928 9.50501 10.928C9.50501 10.928 9.74801 10.662 9.86101 10.518C9.9551 10.3983 10.0429 10.2738 10.124 10.145C10.242 9.955 10.279 9.76 10.217 9.609C9.93701 8.925 9.64701 8.244 9.34901 7.568C9.29001 7.434 9.11501 7.338 8.95601 7.319C8.90201 7.313 8.84801 7.307 8.79401 7.303C8.65972 7.29633 8.52515 7.29766 8.39101 7.307V7.308Z" fill="#72C31E"></path>
  </symbol>
   <symbol fill="none" xmlns="http://www.w3.org/2000/svg" viewBox="0 0 105 150" id="question-blank">
    <path d="M100.208 150H4.79208C2.14503 150 0 147.854 0 145.207V15.7987C0 13.1512 2.14503 11.0059 4.79208 11.0059H100.208C102.855 11.0059 105 13.1512 105 15.7987V145.207C105 147.849 102.855 150 100.208 150Z" fill="#6AA5FE"></path>
    <path d="M0 44.8652V145.207C0 147.854 2.14503 149.999 4.79208 149.999H100.208C102.855 149.999 105 147.854 105 145.207V125.401L0 44.8652Z" fill="#527EE9"></path>
    <path d="M96.9432 143.584H8.05896C6.97884 143.584 6.10156 142.707 6.10156 141.626V19.3747C6.10156 18.2944 6.97884 17.417 8.05896 17.417H96.9432C98.0233 17.417 98.9006 18.2944 98.9006 19.3747V141.626C98.9006 142.707 98.0233 143.584 96.9432 143.584Z" fill="#F3F4F6"></path>
    <path d="M60.4607 8.37869C60.4658 8.24682 60.481 8.12002 60.481 7.98308C60.481 3.57565 56.9059 0 52.4992 0C48.0925 0 44.5175 3.57565 44.5175 7.98308C44.5175 8.11495 44.5327 8.24682 44.5378 8.37869H32.8086V20.546H72.1899V8.37869H60.4607Z" fill="#1A55B5"></path>
    <path d="M32.8086 8.37891V20.5463H72.1899L32.8086 8.37891Z" fill="#2C6BC6"></path>
    <path d="M54.2262 12.1206C56.5113 11.1678 57.5915 8.54261 56.6388 6.25711C55.6861 3.9716 53.0614 2.89125 50.7763 3.84408C48.4911 4.79691 47.411 7.4221 48.3636 9.70761C49.3163 11.9931 51.9411 13.0735 54.2262 12.1206Z" fill="#527EE9"></path>
    <path d="M49.3297 4.81836C47.5802 6.56815 47.5802 9.40838 49.3297 11.1582C51.0792 12.9079 53.9189 12.9079 55.6684 11.1582L49.3297 4.81836Z" fill="#6AA5FE"></path>
    <path d="M72.1899 20.5459H32.8086V21.3827H72.1899V20.5459Z" fill="#CDE1F9"></path>
  </symbol>
  <symbol fill="none" xmlns="http://www.w3.org/2000/svg" viewBox="0 0 105 150" id="question-ready">
    <path d="M100.208 150H4.79209C2.14503 150 0 147.855 0 145.207V15.7988C0 13.1513 2.14503 11.0059 4.79209 11.0059H100.208C102.855 11.0059 105 13.1513 105 15.7988V145.207C105 147.849 102.855 150 100.208 150Z" fill="#6AA5FE"></path>
    <path d="M0 44.8652V145.207C0 147.854 2.14503 150 4.79209 150H100.208C102.855 150 105 147.854 105 145.207V125.401L0 44.8652Z" fill="#527EE9"></path>
    <path d="M96.9414 143.584H8.05701C6.97689 143.584 6.09961 142.707 6.09961 141.627V19.3747C6.09961 18.2944 6.97689 17.417 8.05701 17.417H96.9414C98.0215 17.417 98.8988 18.2944 98.8988 19.3747V141.627C98.8988 142.707 98.0215 143.584 96.9414 143.584Z" fill="#F3F4F6"></path>
    <path d="M60.4607 8.3787C60.4658 8.24683 60.481 8.12003 60.481 7.98309C60.481 3.57565 56.906 0 52.4993 0C48.0926 0 44.5175 3.57565 44.5175 7.98309C44.5175 8.11496 44.5327 8.24683 44.5378 8.3787H32.8086V20.5461H72.1899V8.3787H60.4607V8.3787Z" fill="#1A55B5"></path>
    <path d="M32.8086 8.37891V20.5463H72.1899L32.8086 8.37891Z" fill="#2C6BC6"></path>
    <path d="M54.2262 12.1207C56.5113 11.1678 57.5915 8.54262 56.6388 6.25711C55.6861 3.97159 53.0614 2.89125 50.7763 3.84408C48.4911 4.79691 47.411 7.42211 48.3636 9.70762C49.3163 11.9931 51.9411 13.0735 54.2262 12.1207Z" fill="#527EE9"></path>
    <path d="M49.3297 4.81836C47.5802 6.56815 47.5802 9.40838 49.3297 11.1582C51.0792 12.908 53.9189 12.908 55.6684 11.1582L49.3297 4.81836Z" fill="#6AA5FE"></path>
    <path d="M72.1899 20.5459H32.8086V21.3828H72.1899V20.5459Z" fill="#CDE1F9"></path>
    <path d="M31.7583 37.3955H16.8242V52.3321H31.7583V37.3955Z" stroke="#1A55B5" stroke-miterlimit="10"></path>
    <path d="M87.5999 41.6355H38.9285C38.609 41.6355 38.3555 41.3768 38.3555 41.0624C38.3555 40.7429 38.6141 40.4893 38.9285 40.4893H87.5999C87.9194 40.4893 88.1729 40.7479 88.1729 41.0624C88.1729 41.3768 87.9143 41.6355 87.5999 41.6355Z" fill="#6AA5FE"></path>
    <path d="M87.5999 44.1716H38.9285C38.609 44.1716 38.3555 43.913 38.3555 43.5985C38.3555 43.279 38.6141 43.0254 38.9285 43.0254H87.5999C87.9194 43.0254 88.1729 43.2841 88.1729 43.5985C88.1729 43.913 87.9143 44.1716 87.5999 44.1716Z" fill="#6AA5FE"></path>
    <path d="M87.5999 46.7078H38.9285C38.609 46.7078 38.3555 46.4491 38.3555 46.1346C38.3555 45.8151 38.6141 45.5615 38.9285 45.5615H87.5999C87.9194 45.5615 88.1729 45.8202 88.1729 46.1346C88.1729 46.4491 87.9143 46.7078 87.5999 46.7078Z" fill="#6AA5FE"></path>
    <path d="M87.5999 49.2429H38.9285C38.609 49.2429 38.3555 48.9843 38.3555 48.6698C38.3555 48.3503 38.6141 48.0967 38.9285 48.0967H87.5999C87.9194 48.0967 88.1729 48.3553 88.1729 48.6698C88.1729 48.9843 87.9143 49.2429 87.5999 49.2429Z" fill="#6AA5FE"></path>
    <path d="M31.7583 61.4463H16.8242V76.3829H31.7583V61.4463Z" stroke="#1A55B5" stroke-miterlimit="10"></path>
    <path d="M87.5999 65.6863H38.9285C38.609 65.6863 38.3555 65.4276 38.3555 65.1132C38.3555 64.7936 38.6141 64.54 38.9285 64.54H87.5999C87.9194 64.54 88.1729 64.7987 88.1729 65.1132C88.1729 65.4276 87.9143 65.6863 87.5999 65.6863Z" fill="#6AA5FE"></path>
    <path d="M87.5999 68.2224H38.9285C38.609 68.2224 38.3555 67.9637 38.3555 67.6493C38.3555 67.3298 38.6141 67.0762 38.9285 67.0762H87.5999C87.9194 67.0762 88.1729 67.3348 88.1729 67.6493C88.1729 67.9637 87.9143 68.2224 87.5999 68.2224Z" fill="#6AA5FE"></path>
    <path d="M87.5999 70.7585H38.9285C38.609 70.7585 38.3555 70.4999 38.3555 70.1854C38.3555 69.8659 38.6141 69.6123 38.9285 69.6123H87.5999C87.9194 69.6123 88.1729 69.871 88.1729 70.1854C88.1729 70.4999 87.9143 70.7585 87.5999 70.7585Z" fill="#6AA5FE"></path>
    <path d="M87.5999 73.2937H38.9285C38.609 73.2937 38.3555 73.035 38.3555 72.7206C38.3555 72.401 38.6141 72.1475 38.9285 72.1475H87.5999C87.9194 72.1475 88.1729 72.4061 88.1729 72.7206C88.1729 73.035 87.9143 73.2937 87.5999 73.2937Z" fill="#6AA5FE"></path>
    <path d="M31.7583 85.4971H16.8242V100.434H31.7583V85.4971Z" stroke="#1A55B5" stroke-miterlimit="10"></path>
    <path d="M87.5999 89.7371H38.9285C38.609 89.7371 38.3555 89.4784 38.3555 89.1639C38.3555 88.8444 38.6141 88.5908 38.9285 88.5908H87.5999C87.9194 88.5908 88.1729 88.8495 88.1729 89.1639C88.1729 89.4784 87.9143 89.7371 87.5999 89.7371Z" fill="#6AA5FE"></path>
    <path d="M87.5999 92.2732H38.9285C38.609 92.2732 38.3555 92.0145 38.3555 91.7001C38.3555 91.3805 38.6141 91.127 38.9285 91.127H87.5999C87.9194 91.127 88.1729 91.3856 88.1729 91.7001C88.1729 92.0145 87.9143 92.2732 87.5999 92.2732Z" fill="#6AA5FE"></path>
    <path d="M87.5999 94.8093H38.9285C38.609 94.8093 38.3555 94.5507 38.3555 94.2362C38.3555 93.9167 38.6141 93.6631 38.9285 93.6631H87.5999C87.9194 93.6631 88.1729 93.9218 88.1729 94.2362C88.1729 94.5507 87.9143 94.8093 87.5999 94.8093Z" fill="#6AA5FE"></path>
    <path d="M87.5999 97.3445H38.9285C38.609 97.3445 38.3555 97.0858 38.3555 96.7714C38.3555 96.4518 38.6141 96.1982 38.9285 96.1982H87.5999C87.9194 96.1982 88.1729 96.4569 88.1729 96.7714C88.1729 97.0858 87.9143 97.3445 87.5999 97.3445Z" fill="#6AA5FE"></path>
    <path d="M31.7583 109.547H16.8242V124.483H31.7583V109.547Z" stroke="#1A55B5" stroke-miterlimit="10"></path>
    <path d="M87.6018 113.787H38.9304C38.611 113.787 38.3574 113.528 38.3574 113.214C38.3574 112.894 38.616 112.641 38.9304 112.641H87.6018C87.9213 112.641 88.1749 112.899 88.1749 113.214C88.1749 113.528 87.9162 113.787 87.6018 113.787Z" fill="#6AA5FE"></path>
    <path d="M87.6018 116.323H38.9304C38.611 116.323 38.3574 116.064 38.3574 115.75C38.3574 115.43 38.616 115.177 38.9304 115.177H87.6018C87.9213 115.177 88.1749 115.435 88.1749 115.75C88.1749 116.064 87.9162 116.323 87.6018 116.323Z" fill="#6AA5FE"></path>
    <path d="M87.6018 118.859H38.9304C38.611 118.859 38.3574 118.6 38.3574 118.286C38.3574 117.966 38.616 117.713 38.9304 117.713H87.6018C87.9213 117.713 88.1749 117.972 88.1749 118.286C88.1749 118.6 87.9162 118.859 87.6018 118.859Z" fill="#6AA5FE"></path>
    <path d="M87.6018 121.394H38.9304C38.611 121.394 38.3574 121.136 38.3574 120.821C38.3574 120.502 38.616 120.248 38.9304 120.248H87.6018C87.9213 120.248 88.1749 120.507 88.1749 120.821C88.1749 121.136 87.9162 121.394 87.6018 121.394Z" fill="#6AA5FE"></path>
  </symbol>
   <symbol fill="none" xmlns="http://www.w3.org/2000/svg" viewBox="0 0 24 24" id="todo-line">
    <path d="M17 2H20C20.2652 2 20.5196 2.10536 20.7071 2.29289C20.8946 2.48043 21 2.73478 21 3V21C21 21.2652 20.8946 21.5196 20.7071 21.7071C20.5196 21.8946 20.2652 22 20 22H4C3.73478 22 3.48043 21.8946 3.29289 21.7071C3.10536 21.5196 3 21.2652 3 21V3C3 2.73478 3.10536 2.48043 3.29289 2.29289C3.48043 2.10536 3.73478 2 4 2H7V0H9V2H15V0H17V2ZM17 4V6H15V4H9V6H7V4H5V20H19V4H17ZM7 8H17V10H7V8ZM7 12H17V14H7V12Z" fill="#7E22DD"></path>
  </symbol>
   <symbol fill="none" xmlns="http://www.w3.org/2000/svg" viewBox="0 0 24 24" id="questionnaire-line">
    <path d="M5.763 17H20V5H4V18.385L5.763 17ZM6.455 19L2 22.5V4C2 3.73478 2.10536 3.48043 2.29289 3.29289C2.48043 3.10536 2.73478 3 3 3H21C21.2652 3 21.5196 3.10536 21.7071 3.29289C21.8946 3.48043 22 3.73478 22 4V18C22 18.2652 21.8946 18.5196 21.7071 18.7071C21.5196 18.8946 21.2652 19 21 19H6.455ZM11 14H13V16H11V14ZM8.567 8.813C8.69692 8.16279 9.00882 7.56285 9.4664 7.08298C9.92397 6.60311 10.5084 6.26304 11.1517 6.10236C11.795 5.94167 12.4707 5.96697 13.1002 6.17532C13.7297 6.38366 14.287 6.76647 14.7075 7.27922C15.1279 7.79196 15.394 8.41355 15.475 9.07166C15.5559 9.72976 15.4483 10.3973 15.1646 10.9966C14.881 11.596 14.433 12.1024 13.8727 12.4571C13.3125 12.8118 12.6631 13 12 13H11V11H12C12.2841 11 12.5623 10.9193 12.8023 10.7673C13.0423 10.6154 13.2343 10.3984 13.3558 10.1416C13.4773 9.8848 13.5234 9.5988 13.4887 9.31684C13.454 9.03489 13.34 8.76858 13.1598 8.54891C12.9797 8.32924 12.7409 8.16523 12.4712 8.07597C12.2015 7.98671 11.912 7.97587 11.6364 8.04471C11.3608 8.11354 11.1104 8.25923 10.9144 8.46482C10.7183 8.6704 10.5847 8.92743 10.529 9.206L8.567 8.813V8.813Z" fill="#E6E6E6"></path>
  </symbol>
  <symbol fill="none" xmlns="http://www.w3.org/2000/svg" viewBox="0 0 24 24" id="share-line">
    <path d="M13.1202 17.0227L8.92121 14.7327C8.373 15.3188 7.66119 15.7264 6.87828 15.9026C6.09537 16.0788 5.27756 16.0154 4.53113 15.7208C3.7847 15.4261 3.14417 14.9137 2.69277 14.2502C2.24138 13.5867 2 12.8027 2 12.0002C2 11.1977 2.24138 10.4138 2.69277 9.75027C3.14417 9.08676 3.7847 8.57437 4.53113 8.27968C5.27756 7.98498 6.09537 7.92162 6.87828 8.09783C7.66119 8.27403 8.373 8.68165 8.92121 9.26771L13.1212 6.97772C12.8828 6.03379 12.9968 5.0353 13.4418 4.16942C13.8869 3.30353 14.6325 2.6297 15.5389 2.27422C16.4452 1.91874 17.4501 1.90602 18.3652 2.23845C19.2803 2.57088 20.0427 3.22563 20.5095 4.07998C20.9764 4.93432 21.1156 5.9296 20.9011 6.87926C20.6866 7.82892 20.1332 8.66775 19.3444 9.23852C18.5557 9.8093 17.5859 10.0728 16.6168 9.97971C15.6477 9.88659 14.7458 9.44323 14.0802 8.73272L9.88021 11.0227C10.0414 11.6641 10.0414 12.3354 9.88021 12.9767L14.0792 15.2667C14.7448 14.5562 15.6467 14.1128 16.6158 14.0197C17.5849 13.9266 18.5547 14.1901 19.3434 14.7609C20.1322 15.3317 20.6856 16.1705 20.9001 17.1202C21.1146 18.0698 20.9754 19.0651 20.5085 19.9195C20.0417 20.7738 19.2793 21.4286 18.3642 21.761C17.4491 22.0934 16.4442 22.0807 15.5379 21.7252C14.6315 21.3697 13.8859 20.6959 13.4408 19.83C12.9958 18.9641 12.8818 17.9656 13.1202 17.0217V17.0227ZM6.00021 13.9997C6.53064 13.9997 7.03935 13.789 7.41442 13.4139C7.78949 13.0389 8.00021 12.5301 8.00021 11.9997C8.00021 11.4693 7.78949 10.9606 7.41442 10.5855C7.03935 10.2104 6.53064 9.99971 6.00021 9.99971C5.46977 9.99971 4.96107 10.2104 4.58599 10.5855C4.21092 10.9606 4.00021 11.4693 4.00021 11.9997C4.00021 12.5301 4.21092 13.0389 4.58599 13.4139C4.96107 13.789 5.46977 13.9997 6.00021 13.9997ZM17.0002 7.99972C17.5306 7.99972 18.0393 7.789 18.4144 7.41393C18.7895 7.03886 19.0002 6.53015 19.0002 5.99972C19.0002 5.46928 18.7895 4.96057 18.4144 4.5855C18.0393 4.21043 17.5306 3.99972 17.0002 3.99972C16.4698 3.99972 15.9611 4.21043 15.586 4.5855C15.2109 4.96057 15.0002 5.46928 15.0002 5.99972C15.0002 6.53015 15.2109 7.03886 15.586 7.41393C15.9611 7.789 16.4698 7.99972 17.0002 7.99972ZM17.0002 19.9997C17.5306 19.9997 18.0393 19.789 18.4144 19.4139C18.7895 19.0389 19.0002 18.5301 19.0002 17.9997C19.0002 17.4693 18.7895 16.9606 18.4144 16.5855C18.0393 16.2104 17.5306 15.9997 17.0002 15.9997C16.4698 15.9997 15.9611 16.2104 15.586 16.5855C15.2109 16.9606 15.0002 17.4693 15.0002 17.9997C15.0002 18.5301 15.2109 19.0389 15.586 19.4139C15.9611 19.789 16.4698 19.9997 17.0002 19.9997Z" fill="#E6E6E6"></path>
  </symbol>
   <symbol fill="none" xmlns="http://www.w3.org/2000/svg" viewBox="0 0 24 24" id="questionnaire-line-active">
    <path d="M5.763 17H20V5H4V18.385L5.763 17ZM6.455 19L2 22.5V4C2 3.73478 2.10536 3.48043 2.29289 3.29289C2.48043 3.10536 2.73478 3 3 3H21C21.2652 3 21.5196 3.10536 21.7071 3.29289C21.8946 3.48043 22 3.73478 22 4V18C22 18.2652 21.8946 18.5196 21.7071 18.7071C21.5196 18.8946 21.2652 19 21 19H6.455ZM11 14H13V16H11V14ZM8.567 8.813C8.69692 8.16279 9.00882 7.56285 9.4664 7.08298C9.92397 6.60311 10.5084 6.26304 11.1517 6.10236C11.795 5.94167 12.4707 5.96697 13.1002 6.17532C13.7297 6.38366 14.287 6.76647 14.7075 7.27922C15.1279 7.79196 15.394 8.41355 15.475 9.07166C15.5559 9.72976 15.4483 10.3973 15.1646 10.9966C14.881 11.596 14.433 12.1024 13.8727 12.4571C13.3125 12.8118 12.6631 13 12 13H11V11H12C12.2841 11 12.5623 10.9193 12.8023 10.7673C13.0423 10.6154 13.2343 10.3984 13.3558 10.1416C13.4773 9.8848 13.5234 9.5988 13.4887 9.31684C13.454 9.03489 13.34 8.76858 13.1598 8.54891C12.9797 8.32924 12.7409 8.16523 12.4712 8.07597C12.2015 7.98671 11.912 7.97587 11.6364 8.04471C11.3608 8.11354 11.1104 8.25923 10.9144 8.46482C10.7183 8.6704 10.5847 8.92743 10.529 9.206L8.567 8.813Z" fill="#7E22DD"></path>
  </symbol>
  <symbol fill="none" xmlns="http://www.w3.org/2000/svg" viewBox="0 0 19 21" id="share-line-active">
    <path d="M11.1202 16.0227L6.92121 13.7327C6.373 14.3188 5.66119 14.7264 4.87828 14.9026C4.09537 15.0788 3.27756 15.0154 2.53113 14.7208C1.7847 14.4261 1.14417 13.9137 0.692774 13.2502C0.241381 12.5867 0 11.8027 0 11.0002C0 10.1977 0.241381 9.41378 0.692774 8.75027C1.14417 8.08676 1.7847 7.57437 2.53113 7.27968C3.27756 6.98498 4.09537 6.92162 4.87828 7.09783C5.66119 7.27403 6.373 7.68165 6.92121 8.26771L11.1212 5.97772C10.8828 5.03379 10.9968 4.0353 11.4418 3.16942C11.8869 2.30353 12.6325 1.6297 13.5389 1.27422C14.4452 0.918737 15.4501 0.90602 16.3652 1.23845C17.2803 1.57088 18.0427 2.22563 18.5095 3.07998C18.9764 3.93432 19.1156 4.9296 18.9011 5.87926C18.6866 6.82892 18.1332 7.66775 17.3444 8.23852C16.5557 8.8093 15.5859 9.07283 14.6168 8.97971C13.6477 8.88659 12.7458 8.44323 12.0802 7.73272L7.88021 10.0227C8.04141 10.6641 8.04141 11.3354 7.88021 11.9767L12.0792 14.2667C12.7448 13.5562 13.6467 13.1128 14.6158 13.0197C15.5849 12.9266 16.5547 13.1901 17.3434 13.7609C18.1322 14.3317 18.6856 15.1705 18.9001 16.1202C19.1146 17.0698 18.9754 18.0651 18.5085 18.9195C18.0417 19.7738 17.2793 20.4286 16.3642 20.761C15.4491 21.0934 14.4442 21.0807 13.5379 20.7252C12.6315 20.3697 11.8859 19.6959 11.4408 18.83C10.9958 17.9641 10.8818 16.9656 11.1202 16.0217V16.0227ZM4.00021 12.9997C4.53064 12.9997 5.03935 12.789 5.41442 12.4139C5.78949 12.0389 6.00021 11.5301 6.00021 10.9997C6.00021 10.4693 5.78949 9.96057 5.41442 9.5855C5.03935 9.21043 4.53064 8.99971 4.00021 8.99971C3.46977 8.99971 2.96107 9.21043 2.58599 9.5855C2.21092 9.96057 2.00021 10.4693 2.00021 10.9997C2.00021 11.5301 2.21092 12.0389 2.58599 12.4139C2.96107 12.789 3.46977 12.9997 4.00021 12.9997ZM15.0002 6.99972C15.5306 6.99972 16.0393 6.789 16.4144 6.41393C16.7895 6.03886 17.0002 5.53015 17.0002 4.99972C17.0002 4.46928 16.7895 3.96057 16.4144 3.5855C16.0393 3.21043 15.5306 2.99972 15.0002 2.99972C14.4698 2.99972 13.9611 3.21043 13.586 3.5855C13.2109 3.96057 13.0002 4.46928 13.0002 4.99972C13.0002 5.53015 13.2109 6.03886 13.586 6.41393C13.9611 6.789 14.4698 6.99972 15.0002 6.99972ZM15.0002 18.9997C15.5306 18.9997 16.0393 18.789 16.4144 18.4139C16.7895 18.0389 17.0002 17.5301 17.0002 16.9997C17.0002 16.4693 16.7895 15.9606 16.4144 15.5855C16.0393 15.2104 15.5306 14.9997 15.0002 14.9997C14.4698 14.9997 13.9611 15.2104 13.586 15.5855C13.2109 15.9606 13.0002 16.4693 13.0002 16.9997C13.0002 17.5301 13.2109 18.0389 13.586 18.4139C13.9611 18.789 14.4698 18.9997 15.0002 18.9997Z" fill="#7E22DD"></path>
  </symbol>
  <symbol fill="none" xmlns="http://www.w3.org/2000/svg" viewBox="0 0 24 24" id="todo-line-active">
    <path d="M17 2H20C20.2652 2 20.5196 2.10536 20.7071 2.29289C20.8946 2.48043 21 2.73478 21 3V21C21 21.2652 20.8946 21.5196 20.7071 21.7071C20.5196 21.8946 20.2652 22 20 22H4C3.73478 22 3.48043 21.8946 3.29289 21.7071C3.10536 21.5196 3 21.2652 3 21V3C3 2.73478 3.10536 2.48043 3.29289 2.29289C3.48043 2.10536 3.73478 2 4 2H7V0H9V2H15V0H17V2ZM7 8V10H17V8H7ZM7 12V14H17V12H7Z" fill="#7E22DD"></path>
  </symbol>
   <symbol fill="none" xmlns="http://www.w3.org/2000/svg" viewBox="0 0 24 24" id="image-line">
    <path d="M4.828 21L4.808 21.02L4.787 21H2.992C2.72881 20.9997 2.4765 20.895 2.29049 20.7088C2.10448 20.5226 2 20.2702 2 20.007V3.993C2.00183 3.73038 2.1069 3.47902 2.29251 3.29322C2.47813 3.10742 2.72938 3.00209 2.992 3H21.008C21.556 3 22 3.445 22 3.993V20.007C21.9982 20.2696 21.8931 20.521 21.7075 20.7068C21.5219 20.8926 21.2706 20.9979 21.008 21H4.828V21ZM20 15V5H4V19L14 9L20 15ZM20 17.828L14 11.828L6.828 19H20V17.828ZM8 11C7.46957 11 6.96086 10.7893 6.58579 10.4142C6.21071 10.0391 6 9.53043 6 9C6 8.46957 6.21071 7.96086 6.58579 7.58579C6.96086 7.21071 7.46957 7 8 7C8.53043 7 9.03914 7.21071 9.41421 7.58579C9.78929 7.96086 10 8.46957 10 9C10 9.53043 9.78929 10.0391 9.41421 10.4142C9.03914 10.7893 8.53043 11 8 11Z" fill="#666666"></path>
  </symbol>
   <symbol fill="none" xmlns="http://www.w3.org/2000/svg" viewBox="0 0 18 18" id="information">
    <path d="M9 16.5C4.85775 16.5 1.5 13.1422 1.5 9C1.5 4.85775 4.85775 1.5 9 1.5C13.1422 1.5 16.5 4.85775 16.5 9C16.5 13.1422 13.1422 16.5 9 16.5ZM9 15C10.5913 15 12.1174 14.3679 13.2426 13.2426C14.3679 12.1174 15 10.5913 15 9C15 7.4087 14.3679 5.88258 13.2426 4.75736C12.1174 3.63214 10.5913 3 9 3C7.4087 3 5.88258 3.63214 4.75736 4.75736C3.63214 5.88258 3 7.4087 3 9C3 10.5913 3.63214 12.1174 4.75736 13.2426C5.88258 14.3679 7.4087 15 9 15V15ZM8.25 5.25H9.75V6.75H8.25V5.25ZM8.25 8.25H9.75V12.75H8.25V8.25Z" fill="#999999"></path>
  </symbol>
    <symbol fill="none" xmlns="http://www.w3.org/2000/svg" viewBox="0 0 21 21" id="arrow-down">
    <path d="M11.3326 13.9763L15.8026 9.50634L16.9809 10.6847L10.4992 17.1663L4.01758 10.6847L5.19591 9.50634L9.66591 13.9763V3.83301H11.3326V13.9763Z" fill="#666666"></path>
  </symbol>
  <symbol fill="none" xmlns="http://www.w3.org/2000/svg" viewBox="0 0 21 21" id="arrow-up">
    <path d="M11.3326 7.02301V17.1663H9.66591V7.02301L5.19591 11.493L4.01758 10.3147L10.4992 3.83301L16.9809 10.3147L15.8026 11.493L11.3326 7.02301Z" fill="#666666"></path>
  </symbol>
  <symbol fill="none" xmlns="http://www.w3.org/2000/svg" viewBox="0 0 21 21" id="delete">
    <path d="M14.666 5.50033H18.8327V7.16699H17.166V18.0003C17.166 18.2213 17.0782 18.4333 16.9219 18.5896C16.7657 18.7459 16.5537 18.8337 16.3327 18.8337H4.66602C4.445 18.8337 4.23304 18.7459 4.07676 18.5896C3.92048 18.4333 3.83268 18.2213 3.83268 18.0003V7.16699H2.16602V5.50033H6.33268V3.00033C6.33268 2.77931 6.42048 2.56735 6.57676 2.41107C6.73304 2.25479 6.945 2.16699 7.16602 2.16699H13.8327C14.0537 2.16699 14.2657 2.25479 14.4219 2.41107C14.5782 2.56735 14.666 2.77931 14.666 3.00033V5.50033ZM15.4993 7.16699H5.49935V17.167H15.4993V7.16699ZM7.99935 3.83366V5.50033H12.9993V3.83366H7.99935Z" fill="#666666"></path>
  </symbol>
  <symbol fill="none" xmlns="http://www.w3.org/2000/svg" viewBox="0 0 21 21" id="edit">
    <path d="M4.66667 16.3334H5.845L13.6067 8.57174L12.4283 7.3934L4.66667 15.1551V16.3334ZM18 18.0001H3V14.4642L14.1958 3.2684C14.3521 3.11218 14.564 3.02441 14.785 3.02441C15.006 3.02441 15.2179 3.11218 15.3742 3.2684L17.7317 5.6259C17.8879 5.78218 17.9757 5.9941 17.9757 6.21507C17.9757 6.43604 17.8879 6.64796 17.7317 6.80424L8.2025 16.3334H18V18.0001ZM13.6067 6.21507L14.785 7.3934L15.9633 6.21507L14.785 5.03674L13.6067 6.21507Z" fill="#666666"></path>
  </symbol>

</svg>