<svg width="0" height="0" class="hidden">
 <symbol fill="none" xmlns="http://www.w3.org/2000/svg" viewBox="0 0 16 21" id="save-selected">
    <path d="M1 0H15C15.2652 0 15.5196 0.105357 15.7071 0.292893C15.8946 0.48043 16 0.734784 16 1V20.143C16.0001 20.2324 15.9763 20.3202 15.9309 20.3973C15.8855 20.4743 15.8204 20.5378 15.7421 20.5811C15.6639 20.6244 15.5755 20.6459 15.4861 20.6434C15.3968 20.641 15.3097 20.6146 15.234 20.567L8 16.03L0.766 20.566C0.690368 20.6135 0.603387 20.6399 0.514102 20.6424C0.424817 20.6449 0.336486 20.6235 0.258295 20.5803C0.180104 20.5371 0.114907 20.4738 0.0694828 20.3969C0.0240588 20.32 6.64708e-05 20.2323 0 20.143V1C0 0.734784 0.105357 0.48043 0.292893 0.292893C0.48043 0.105357 0.734784 0 1 0Z" fill="#6F1EC3"></path>
  </symbol>
  <symbol fill="none" xmlns="http://www.w3.org/2000/svg" viewBox="0 0 19 20" id="share-selected">
    <path d="M11.5757 15.2706L6.46571 12.4836C5.97521 12.9705 5.35153 13.3013 4.6733 13.4342C3.99508 13.5672 3.29267 13.4964 2.65464 13.2307C2.0166 12.9651 1.4715 12.5164 1.08806 11.9414C0.704619 11.3664 0.5 10.6908 0.5 9.99962C0.5 9.30849 0.704619 8.63283 1.08806 8.05782C1.4715 7.4828 2.0166 7.03419 2.65464 6.76852C3.29267 6.50286 3.99508 6.43204 4.6733 6.56499C5.35153 6.69795 5.97521 7.02873 6.46571 7.51562L11.5757 4.72862C11.4005 3.90636 11.527 3.04848 11.9323 2.31188C12.3376 1.57527 12.9945 1.00915 13.7828 0.717056C14.5712 0.424958 15.4383 0.426396 16.2257 0.721109C17.0131 1.01582 17.6681 1.58411 18.0709 2.32206C18.4737 3.06001 18.5975 3.9183 18.4195 4.73998C18.2415 5.56165 17.7737 6.29181 17.1016 6.79692C16.4295 7.30204 15.5981 7.54835 14.7593 7.49082C13.9206 7.43329 13.1305 7.07577 12.5337 6.48362L7.42371 9.27062C7.52565 9.75128 7.52565 10.248 7.42371 10.7286L12.5337 13.5156C13.1305 12.9235 13.9206 12.566 14.7593 12.5084C15.5981 12.4509 16.4295 12.6972 17.1016 13.2023C17.7737 13.7074 18.2415 14.4376 18.4195 15.2593C18.5975 16.0809 18.4737 16.9392 18.0709 17.6772C17.6681 18.4151 17.0131 18.9834 16.2257 19.2781C15.4383 19.5728 14.5712 19.5743 13.7828 19.2822C12.9945 18.9901 12.3376 18.424 11.9323 17.6874C11.527 16.9508 11.4005 16.0929 11.5757 15.2706Z" fill="#6F1EC3"></path>
  </symbol>
  <symbol fill="none" xmlns="http://www.w3.org/2000/svg" viewBox="0 0 16 21" id="save-unselected">
    <path d="M1 0H15C15.2652 0 15.5196 0.105357 15.7071 0.292893C15.8946 0.48043 16 0.734784 16 1V20.143C16.0001 20.2324 15.9763 20.3202 15.9309 20.3973C15.8855 20.4743 15.8204 20.5378 15.7421 20.5811C15.6639 20.6244 15.5755 20.6459 15.4861 20.6434C15.3968 20.641 15.3097 20.6146 15.234 20.567L8 16.03L0.766 20.566C0.690368 20.6135 0.603387 20.6399 0.514102 20.6424C0.424817 20.6449 0.336486 20.6235 0.258295 20.5803C0.180104 20.5371 0.114907 20.4738 0.0694828 20.3969C0.0240588 20.32 6.64708e-05 20.2323 0 20.143V1C0 0.734784 0.105357 0.48043 0.292893 0.292893C0.48043 0.105357 0.734784 0 1 0ZM14 2H2V17.432L8 13.671L14 17.432V2Z" fill="black"></path>
  </symbol>
  <symbol fill="none" xmlns="http://www.w3.org/2000/svg" viewBox="0 0 19 21" id="share-unselected">
    <path d="M11.1202 16.0227L6.92121 13.7327C6.373 14.3188 5.66119 14.7264 4.87828 14.9026C4.09537 15.0788 3.27756 15.0154 2.53113 14.7208C1.7847 14.4261 1.14417 13.9137 0.692774 13.2502C0.241381 12.5867 0 11.8027 0 11.0002C0 10.1977 0.241381 9.41378 0.692774 8.75027C1.14417 8.08676 1.7847 7.57437 2.53113 7.27968C3.27756 6.98498 4.09537 6.92162 4.87828 7.09783C5.66119 7.27403 6.373 7.68165 6.92121 8.26771L11.1212 5.97772C10.8828 5.03379 10.9968 4.0353 11.4418 3.16942C11.8869 2.30353 12.6325 1.6297 13.5389 1.27422C14.4452 0.918737 15.4501 0.90602 16.3652 1.23845C17.2803 1.57088 18.0427 2.22563 18.5095 3.07998C18.9764 3.93432 19.1156 4.9296 18.9011 5.87926C18.6866 6.82892 18.1332 7.66775 17.3444 8.23852C16.5557 8.8093 15.5859 9.07283 14.6168 8.97971C13.6477 8.88659 12.7458 8.44323 12.0802 7.73272L7.88021 10.0227C8.04141 10.6641 8.04141 11.3354 7.88021 11.9767L12.0792 14.2667C12.7448 13.5562 13.6467 13.1128 14.6158 13.0197C15.5849 12.9266 16.5547 13.1901 17.3434 13.7609C18.1322 14.3317 18.6856 15.1705 18.9001 16.1202C19.1146 17.0698 18.9754 18.0651 18.5085 18.9195C18.0417 19.7738 17.2793 20.4286 16.3642 20.761C15.4491 21.0934 14.4442 21.0807 13.5379 20.7252C12.6315 20.3697 11.8859 19.6959 11.4408 18.83C10.9958 17.9641 10.8818 16.9656 11.1202 16.0217V16.0227ZM4.00021 12.9997C4.53064 12.9997 5.03935 12.789 5.41442 12.4139C5.78949 12.0389 6.00021 11.5301 6.00021 10.9997C6.00021 10.4693 5.78949 9.96057 5.41442 9.5855C5.03935 9.21043 4.53064 8.99971 4.00021 8.99971C3.46977 8.99971 2.96107 9.21043 2.58599 9.5855C2.21092 9.96057 2.00021 10.4693 2.00021 10.9997C2.00021 11.5301 2.21092 12.0389 2.58599 12.4139C2.96107 12.789 3.46977 12.9997 4.00021 12.9997ZM15.0002 6.99972C15.5306 6.99972 16.0393 6.789 16.4144 6.41393C16.7895 6.03886 17.0002 5.53015 17.0002 4.99972C17.0002 4.46928 16.7895 3.96057 16.4144 3.5855C16.0393 3.21043 15.5306 2.99972 15.0002 2.99972C14.4698 2.99972 13.9611 3.21043 13.586 3.5855C13.2109 3.96057 13.0002 4.46928 13.0002 4.99972C13.0002 5.53015 13.2109 6.03886 13.586 6.41393C13.9611 6.789 14.4698 6.99972 15.0002 6.99972ZM15.0002 18.9997C15.5306 18.9997 16.0393 18.789 16.4144 18.4139C16.7895 18.0389 17.0002 17.5301 17.0002 16.9997C17.0002 16.4693 16.7895 15.9606 16.4144 15.5855C16.0393 15.2104 15.5306 14.9997 15.0002 14.9997C14.4698 14.9997 13.9611 15.2104 13.586 15.5855C13.2109 15.9606 13.0002 16.4693 13.0002 16.9997C13.0002 17.5301 13.2109 18.0389 13.586 18.4139C13.9611 18.789 14.4698 18.9997 15.0002 18.9997Z" fill="black"></path>
  </symbol>
    <symbol fill="none" xmlns="http://www.w3.org/2000/svg" viewBox="0 0 24 24" id="telegram">
    <path d="M12 2C6.5 2 2 6.5 2 12C2 17.5 6.5 22 12 22C17.5 22 22 17.5 22 12C22 6.5 17.5 2 12 2Z" fill="#29B6F6"></path>
    <path d="M17 7.5L15.15 17.05C15.15 17.05 15.05 17.5 14.55 17.5C14.25 17.5 14.1 17.35 14.1 17.35L10 14L8 13L5.45 12.3C5.45 12.3 5 12.15 5 11.8C5 11.5 5.45 11.35 5.45 11.35L16.1 7.1C16.1 7.1 16.45 7 16.65 7C16.8 7 16.95 7.05 16.95 7.25C17 7.4 17 7.5 17 7.5Z" fill="white"></path>
    <path d="M11.4998 15.25L9.7998 16.95C9.7998 16.95 9.7498 17 9.6498 17C9.5998 17 9.5998 17 9.5498 17L10.0498 14L11.4998 15.25Z" fill="#B0BEC5"></path>
    <path d="M14.95 9.09963C14.85 8.99963 14.7 8.94963 14.6 9.04963L8 12.9996C8 12.9996 9.05 15.9496 9.2 16.4496C9.35 16.9496 9.5 16.9496 9.5 16.9496L10 13.9496L14.9 9.39963C15 9.34963 15.05 9.19963 14.95 9.09963Z" fill="#CFD8DC"></path>
  </symbol>
    <symbol fill="none" xmlns="http://www.w3.org/2000/svg" viewBox="0 0 24 24" id="copy-link">
    <path d="M7 6V3C7 2.73478 7.10536 2.48043 7.29289 2.29289C7.48043 2.10536 7.73478 2 8 2H20C20.2652 2 20.5196 2.10536 20.7071 2.29289C20.8946 2.48043 21 2.73478 21 3V17C21 17.2652 20.8946 17.5196 20.7071 17.7071C20.5196 17.8946 20.2652 18 20 18H17V21C17 21.552 16.55 22 15.993 22H4.007C3.87513 22.0008 3.7444 21.9755 3.62232 21.9256C3.50025 21.8757 3.38923 21.8022 3.29566 21.7093C3.20208 21.6164 3.12779 21.5059 3.07705 21.3841C3.02632 21.2624 3.00013 21.1319 3 21L3.003 7C3.003 6.448 3.453 6 4.01 6H7ZM5.003 8L5 20H15V8H5.003ZM9 6H17V16H19V4H9V6Z" fill="#666666"></path>
  </symbol>
  <symbol fill="none" xmlns="http://www.w3.org/2000/svg" viewBox="0 0 24 24" id="whatsapp">
    <path d="M2.00401 22L3.35601 17.032C2.46515 15.5049 1.99711 13.768 2.00001 12C2.00001 6.477 6.47701 2 12 2C17.523 2 22 6.477 22 12C22 17.523 17.523 22 12 22C10.2328 22.0029 8.49667 21.5352 6.97001 20.645L2.00401 22ZM8.39101 7.308C8.26188 7.31602 8.13569 7.35003 8.02001 7.408C7.91153 7.46943 7.81251 7.54622 7.72601 7.636C7.60601 7.749 7.53801 7.847 7.46501 7.942C7.09542 8.423 6.89662 9.01342 6.90001 9.62C6.90201 10.11 7.03001 10.587 7.23001 11.033C7.63901 11.935 8.31201 12.89 9.20101 13.775C9.41501 13.988 9.62401 14.202 9.84901 14.401C10.9524 15.3725 12.2673 16.073 13.689 16.447L14.258 16.534C14.443 16.544 14.628 16.53 14.814 16.521C15.1053 16.506 15.3896 16.4271 15.647 16.29C15.813 16.202 15.891 16.158 16.03 16.07C16.03 16.07 16.073 16.042 16.155 15.98C16.29 15.88 16.373 15.809 16.485 15.692C16.568 15.606 16.64 15.505 16.695 15.39C16.773 15.227 16.851 14.916 16.883 14.657C16.907 14.459 16.9 14.351 16.897 14.284C16.893 14.177 16.804 14.066 16.707 14.019L16.125 13.758C16.125 13.758 15.255 13.379 14.724 13.137C14.668 13.1126 14.608 13.0987 14.547 13.096C14.4786 13.089 14.4095 13.0967 14.3443 13.1186C14.2791 13.1405 14.2193 13.1761 14.169 13.223V13.221C14.164 13.221 14.097 13.278 13.374 14.154C13.3325 14.2098 13.2754 14.2519 13.2098 14.2751C13.1443 14.2982 13.0733 14.3013 13.006 14.284C12.9409 14.2666 12.877 14.2445 12.815 14.218C12.691 14.166 12.648 14.146 12.563 14.109L12.558 14.107C11.9859 13.8572 11.4562 13.5198 10.988 13.107C10.862 12.997 10.745 12.877 10.625 12.761C10.2316 12.3842 9.88873 11.958 9.60501 11.493L9.54601 11.398C9.50364 11.3342 9.46937 11.2653 9.44401 11.193C9.40601 11.046 9.50501 10.928 9.50501 10.928C9.50501 10.928 9.74801 10.662 9.86101 10.518C9.9551 10.3983 10.0429 10.2738 10.124 10.145C10.242 9.955 10.279 9.76 10.217 9.609C9.93701 8.925 9.64701 8.244 9.34901 7.568C9.29001 7.434 9.11501 7.338 8.95601 7.319C8.90201 7.313 8.84801 7.307 8.79401 7.303C8.65972 7.29633 8.52515 7.29766 8.39101 7.307V7.308Z" fill="#72C31E"></path>
  </symbol>
</svg>